<svg width="144" height="54" viewBox="0 0 144 54" fill="none" xmlns="http://www.w3.org/2000/svg">
<path d="M50.98 22.432C50.404 21.376 49.612 20.572 48.604 20.02C47.596 19.468 46.42 19.192 45.076 19.192C43.588 19.192 42.268 19.528 41.116 20.2C39.964 20.872 39.064 21.832 38.416 23.08C37.768 24.328 37.444 25.768 37.444 27.4C37.444 29.08 37.768 30.544 38.416 31.792C39.088 33.04 40.012 34 41.188 34.672C42.364 35.344 43.732 35.68 45.292 35.68C47.212 35.68 48.784 35.176 50.008 34.168C51.232 33.136 52.036 31.708 52.42 29.884H43.78V26.032H57.388V30.424C57.052 32.176 56.332 33.796 55.228 35.284C54.124 36.772 52.696 37.972 50.944 38.884C49.216 39.772 47.272 40.216 45.112 40.216C42.688 40.216 40.492 39.676 38.524 38.596C36.58 37.492 35.044 35.968 33.916 34.024C32.812 32.08 32.26 29.872 32.26 27.4C32.26 24.928 32.812 22.72 33.916 20.776C35.044 18.808 36.58 17.284 38.524 16.204C40.492 15.1 42.676 14.548 45.076 14.548C47.908 14.548 50.368 15.244 52.456 16.636C54.544 18.004 55.984 19.936 56.776 22.432H50.98ZM69.9728 40.324C68.0528 40.324 66.3248 39.904 64.7888 39.064C63.2528 38.2 62.0408 36.988 61.1528 35.428C60.2888 33.868 59.8568 32.068 59.8568 30.028C59.8568 27.988 60.3008 26.188 61.1888 24.628C62.1008 23.068 63.3368 21.868 64.8968 21.028C66.4568 20.164 68.1968 19.732 70.1168 19.732C72.0368 19.732 73.7768 20.164 75.3368 21.028C76.8968 21.868 78.1208 23.068 79.0088 24.628C79.9208 26.188 80.3768 27.988 80.3768 30.028C80.3768 32.068 79.9088 33.868 78.9728 35.428C78.0608 36.988 76.8128 38.2 75.2288 39.064C73.6688 39.904 71.9168 40.324 69.9728 40.324ZM69.9728 35.932C70.8848 35.932 71.7368 35.716 72.5288 35.284C73.3448 34.828 73.9928 34.156 74.4728 33.268C74.9528 32.38 75.1928 31.3 75.1928 30.028C75.1928 28.132 74.6888 26.68 73.6808 25.672C72.6968 24.64 71.4848 24.124 70.0448 24.124C68.6048 24.124 67.3928 24.64 66.4088 25.672C65.4488 26.68 64.9688 28.132 64.9688 30.028C64.9688 31.924 65.4368 33.388 66.3728 34.42C67.3328 35.428 68.5328 35.932 69.9728 35.932Z" fill="white"/>
<path d="M92.9298 40.324C91.0098 40.324 89.2818 39.904 87.7458 39.064C86.2098 38.2 84.9978 36.988 84.1098 35.428C83.2458 33.868 82.8138 32.068 82.8138 30.028C82.8138 27.988 83.2578 26.188 84.1458 24.628C85.0578 23.068 86.2938 21.868 87.8538 21.028C89.4138 20.164 91.1538 19.732 93.0738 19.732C94.9938 19.732 96.7338 20.164 98.2938 21.028C99.8538 21.868 101.078 23.068 101.966 24.628C102.878 26.188 103.334 27.988 103.334 30.028C103.334 32.068 102.866 33.868 101.93 35.428C101.018 36.988 99.7698 38.2 98.1858 39.064C96.6258 39.904 94.8738 40.324 92.9298 40.324ZM92.9298 35.932C93.8418 35.932 94.6938 35.716 95.4858 35.284C96.3018 34.828 96.9498 34.156 97.4298 33.268C97.9098 32.38 98.1498 31.3 98.1498 30.028C98.1498 28.132 97.6458 26.68 96.6378 25.672C95.6538 24.64 94.4418 24.124 93.0018 24.124C91.5618 24.124 90.3498 24.64 89.3658 25.672C88.4058 26.68 87.9258 28.132 87.9258 30.028C87.9258 31.924 88.3938 33.388 89.3298 34.42C90.2898 35.428 91.4898 35.932 92.9298 35.932ZM112.071 23.152C112.719 22.096 113.559 21.268 114.591 20.668C115.647 20.068 116.847 19.768 118.191 19.768V25.06H116.859C115.275 25.06 114.075 25.432 113.259 26.176C112.467 26.92 112.071 28.216 112.071 30.064V40H107.031V20.056H112.071V23.152ZM129.398 19.732C130.886 19.732 132.194 20.032 133.322 20.632C134.45 21.208 135.338 21.964 135.986 22.9V20.056H141.062V40.144C141.062 41.992 140.69 43.636 139.946 45.076C139.202 46.54 138.086 47.692 136.598 48.532C135.11 49.396 133.31 49.828 131.198 49.828C128.366 49.828 126.038 49.168 124.214 47.848C122.414 46.528 121.394 44.728 121.154 42.448H126.158C126.422 43.36 126.986 44.08 127.85 44.608C128.738 45.16 129.806 45.436 131.054 45.436C132.518 45.436 133.706 44.992 134.618 44.104C135.53 43.24 135.986 41.92 135.986 40.144V37.048C135.338 37.984 134.438 38.764 133.286 39.388C132.158 40.012 130.862 40.324 129.398 40.324C127.718 40.324 126.182 39.892 124.79 39.028C123.398 38.164 122.294 36.952 121.478 35.392C120.686 33.808 120.29 31.996 120.29 29.956C120.29 27.94 120.686 26.152 121.478 24.592C122.294 23.032 123.386 21.832 124.754 20.992C126.146 20.152 127.694 19.732 129.398 19.732ZM135.986 30.028C135.986 28.804 135.746 27.76 135.266 26.896C134.786 26.008 134.138 25.336 133.322 24.88C132.506 24.4 131.63 24.16 130.694 24.16C129.758 24.16 128.894 24.388 128.102 24.844C127.31 25.3 126.662 25.972 126.158 26.86C125.678 27.724 125.438 28.756 125.438 29.956C125.438 31.156 125.678 32.212 126.158 33.124C126.662 34.012 127.31 34.696 128.102 35.176C128.918 35.656 129.782 35.896 130.694 35.896C131.63 35.896 132.506 35.668 133.322 35.212C134.138 34.732 134.786 34.06 135.266 33.196C135.746 32.308 135.986 31.252 135.986 30.028Z" fill="#99D4EA"/>
<line x1="18" y1="24.35" x2="28" y2="24.35" stroke="white" stroke-width="1.3"/>
<line x1="5.68248e-08" y1="28.35" x2="28" y2="28.35" stroke="white" stroke-width="1.3"/>
<line x1="7" y1="32.35" x2="28" y2="32.35" stroke="white" stroke-width="1.3"/>
</svg>
