<svg width="202" height="149" viewBox="0 0 202 149" fill="none" xmlns="http://www.w3.org/2000/svg">
<g clip-path="url(#clip0_631_950)">
<path d="M182.911 148.31H140.08V147.001C140.08 145.865 140.534 144.775 141.341 143.971C142.148 143.168 143.242 142.716 144.383 142.716H178.609C179.75 142.716 180.844 143.168 181.651 143.971C182.458 144.775 182.911 145.865 182.911 147.001V148.31Z" fill="#E6E6E6"/>
<path d="M160.493 142.978L161.796 142.455C148.167 108.771 149.48 66.275 161.001 29.8211C162.369 25.5974 162.468 21.0675 161.285 16.7887C160.102 12.5099 157.688 8.66878 154.341 5.738C147.654 -0.203877 138.435 -1.65137 130.281 1.96002C122.232 5.52532 121.122 11.7355 121.122 17.9155H122.527C122.527 11.3187 123.942 6.29805 130.852 3.23767C138.494 -0.146865 147.137 1.21067 153.406 6.78146C156.55 9.53409 158.817 13.1418 159.928 17.1606C161.039 21.1795 160.947 25.4342 159.661 29.4012C148.008 66.2761 146.772 109.064 160.493 142.978Z" fill="#E6E6E6"/>
<path d="M122.176 38.5408C124.89 38.5408 127.091 36.3496 127.091 33.6466C127.091 30.9436 124.89 28.7524 122.176 28.7524C119.461 28.7524 117.261 30.9436 117.261 33.6466C117.261 36.3496 119.461 38.5408 122.176 38.5408Z" fill="#E6E6E6"/>
<path d="M114.606 42.1785V32.9053H116.054V42.1785C116.47 42.3458 116.814 42.6518 117.027 43.044C117.241 43.4361 117.311 43.8901 117.225 44.328C117.14 44.766 116.904 45.1607 116.558 45.4444C116.212 45.7282 115.778 45.8834 115.33 45.8834C114.882 45.8834 114.448 45.7282 114.102 45.4444C113.756 45.1607 113.521 44.766 113.435 44.328C113.349 43.8901 113.419 43.4361 113.633 43.044C113.847 42.6518 114.191 42.3458 114.606 42.1785Z" fill="#E6E6E6"/>
<path d="M107.606 25.7811C107.609 23.6494 108.46 21.6057 109.974 20.0984C111.488 18.591 113.54 17.7431 115.681 17.7407H129.022C131.163 17.7407 133.217 18.5878 134.731 20.0957C136.246 21.6036 137.096 23.6487 137.096 25.7811C137.096 27.9136 136.246 29.9587 134.731 31.4665C133.217 32.9744 131.163 33.8215 129.022 33.8215H115.681C113.54 33.8191 111.488 32.9712 109.974 31.4639C108.46 29.9565 107.609 27.9128 107.606 25.7811Z" fill="#6C63FF"/>
<path d="M88.8095 75.5725C90.149 58.5085 96.9975 50.3783 92.6123 45.2798C88.4118 40.396 76.5797 41.4048 68.981 46.0912C48.4854 58.7313 40.9766 109.11 67.3512 133.724C92.4138 157.113 139.912 149.622 150.468 130.478C152.931 126.011 154.888 118.181 151.283 113.438C142.334 101.665 109.795 122.99 95.3285 109.652C86.7549 101.747 88.0744 84.9372 88.8095 75.5725Z" fill="#3F3D56"/>
<path d="M104.477 67.0948C103.979 67.3228 103.59 67.7352 103.393 68.2443C103.196 68.7534 103.206 69.319 103.421 69.8208C103.467 69.9221 103.52 70.0194 103.582 70.1119L99.1829 75.9608L101.378 79.2278L106.534 70.5667C106.9 70.283 107.16 69.8869 107.276 69.4401C107.391 68.9934 107.355 68.5211 107.173 68.0971C107.066 67.8568 106.914 67.6397 106.723 67.4581C106.533 67.2765 106.309 67.1341 106.063 67.0389C105.817 66.9437 105.555 66.8976 105.292 66.9033C105.028 66.909 104.768 66.9663 104.527 67.072C104.51 67.0793 104.493 67.0869 104.477 67.0948Z" fill="#FFB6B6"/>
<path d="M104.473 77.1793C104.761 77.4336 103.962 77.7473 103.118 77.2524C102.876 77.109 102.773 77.0495 102.746 77.0874C102.678 77.182 103.074 77.8798 102.968 79.4296C102.903 80.3547 101.36 82.0938 99.6083 83.7896C97.2397 86.0832 94.4854 88.2957 94.4854 88.2957L93.5185 87.5248L83.3787 79.4296L81.6675 77.0711C81.8242 76.1398 82.0595 75.2232 82.371 74.3313C82.8001 73.0966 83.31 71.8913 83.8975 70.7232C84.2126 70.0876 84.5358 69.4817 84.8455 68.9246L90.278 74.8857L94.8304 79.8786C94.8304 79.8786 96.1559 77.7527 97.1827 77.1739C97.3136 77.0907 97.4626 77.0397 97.6173 77.0252C98.6549 76.9765 98.7173 76.4139 97.5141 75.1887C96.3108 73.9634 97.8291 75.1075 98.8993 74.7776C99.9695 74.4476 98.8993 74.7776 99.1248 73.9526C99.3502 73.1277 102.352 71.4724 102.352 71.4724L102.477 71.5833L104.745 73.5767L105.394 74.1474C105.394 74.1474 104.685 76.0839 104.489 76.4923C104.294 76.9007 104.188 76.9224 104.473 77.1793Z" fill="#6C63FF"/>
<path d="M164.262 114.752L164.373 111.769L152.869 109.924L152.706 114.327L164.262 114.752Z" fill="#FFB6B6"/>
<path d="M162.174 115.65L162.065 110.873L164.115 110.949L167.426 106.533C167.59 106.315 167.819 106.154 168.081 106.075C168.342 105.996 168.622 106.002 168.88 106.092C169.138 106.183 169.36 106.353 169.513 106.578C169.667 106.803 169.745 107.071 169.735 107.343L169.524 113.018L167.459 113.921L169.474 114.378L169.395 116.517L162.174 115.65Z" fill="#2F2E41"/>
<path d="M99.5181 115.913L135.955 116.833C135.955 116.833 151.689 117.738 155.381 115.347L159.274 114.858L159.485 109.163C159.485 109.163 157.104 109.181 155.736 108.546C154.367 107.911 155.318 107.134 154.013 107.898C152.708 108.662 152.846 108.754 151.837 108.403C150.828 108.052 104.561 101.029 104.561 101.029L99.5181 115.913Z" fill="#2F2E41"/>
<path d="M147.531 113.442L149.65 111.33L142.477 102.187L139.35 105.305L147.531 113.442Z" fill="#FFB6B6"/>
<path d="M145.387 111.605L148.57 108.029L150.022 109.473L155.465 108.478C155.734 108.429 156.012 108.467 156.257 108.586C156.503 108.705 156.704 108.899 156.831 109.14C156.959 109.381 157.005 109.656 156.964 109.925C156.923 110.194 156.797 110.443 156.604 110.636L152.574 114.653L150.443 113.917L151.608 115.616L150.089 117.131L145.387 111.605Z" fill="#2F2E41"/>
<path d="M85.1428 96.0432L85.5051 104.428C85.9315 114.298 96.8479 120.272 105.313 115.119C105.469 115.024 105.625 114.925 105.782 114.823C105.782 114.823 108.991 113.965 108.894 112.606C108.797 111.247 109.581 110.586 110.274 110.956C110.968 111.327 120.052 98.4903 120.052 98.4903C120.052 98.4903 138.925 107.865 143.088 110.071C143.088 110.071 147.003 103.977 146.719 104.041C146.435 104.104 123.371 88.0301 123.371 88.0301C123.371 88.0301 119.613 84.2435 114.952 86.7437C114.855 87.1109 114.938 87.1237 114.938 87.1237L99.5414 99.6164L97.3659 95.5023L85.1428 96.0432Z" fill="#2F2E41"/>
<path d="M99.6598 85.5611C99.6306 85.9484 99.5752 86.3334 99.4941 86.7133C99.3833 87.2633 99.2044 87.7974 98.9618 88.3037C98.9618 88.3037 98.9618 88.869 97.8753 90.7623C96.7888 92.6556 98.1469 91.8442 98.9618 93.2506C99.7767 94.6543 98.9618 94.0079 98.0573 94.9113C97.7969 95.1742 97.6119 95.5017 97.5216 95.8599C97.4313 96.218 97.439 96.5937 97.5439 96.9479C97.5439 96.9479 85.8749 96.956 83.7019 96.1446C81.5289 95.3332 81.0346 90.7623 82.9821 90.3106C84.9269 89.8589 82.3927 89.4099 81.2491 88.3686C80.1056 87.3273 82.3927 85.6233 82.3927 85.6233C82.3927 85.6233 81.4501 84.0032 81.5289 78.564C81.54 78.0637 81.5863 77.5649 81.6674 77.071C81.8241 76.1396 82.0595 75.2231 82.371 74.3311C82.8 73.0965 83.3099 71.8912 83.8975 70.7231C84.2125 70.0875 84.5358 69.4816 84.8454 68.9244C84.8943 68.8379 84.9405 68.754 84.9894 68.6702C85.5788 67.6316 86.1166 66.7823 86.4725 66.2387C86.7468 65.8167 86.9125 65.5787 86.9125 65.5787L88.8899 62.1545L95.4904 65.2352L95.1156 70.2741L96.2537 74.0742L96.7779 75.8241L97.1826 77.1738L97.8074 79.2645C97.8074 79.2645 97.6362 79.2726 97.8399 79.5512C98.7781 80.7933 99.3864 82.2511 99.6082 83.7895C99.6864 84.3767 99.7037 84.9704 99.6598 85.5611Z" fill="#6C63FF"/>
<path d="M118.721 86.1042L118.597 86.0643L102.799 80.9987L108.621 61.9814C108.737 61.6027 108.937 61.2552 109.208 60.965C109.478 60.6748 109.811 60.4495 110.182 60.3061C110.553 60.1626 110.951 60.1049 111.347 60.1371C111.743 60.1693 112.127 60.2907 112.47 60.4921L122.565 66.4313C123.364 66.9009 123.972 67.6353 124.283 68.5059C124.593 69.3766 124.587 70.3283 124.264 71.1947L118.721 86.1042Z" fill="#2F2E41"/>
<path d="M118.785 87.3131L102.86 82.2067L108.682 63.1894C108.798 62.8108 108.998 62.4632 109.269 62.173C109.539 61.8828 109.872 61.6575 110.243 61.5141C110.614 61.3707 111.012 61.3129 111.408 61.3451C111.805 61.3773 112.188 61.4987 112.531 61.7001L123.108 66.9587C124.697 67.8933 124.66 70.3123 123.922 72.2972L118.785 87.3131Z" fill="#6C63FF"/>
<path d="M117.191 88.6897C116.824 88.8957 116.418 89.0235 115.999 89.065C115.58 89.1065 115.157 89.0608 114.757 88.9307L104.578 85.6667C103.797 85.4126 103.147 84.8646 102.766 84.1396C102.386 83.4145 102.305 82.5701 102.541 81.7865L107.644 65.1155C107.746 64.7824 107.914 64.473 108.138 64.2054C108.361 63.9377 108.636 63.7172 108.947 63.5568C109.257 63.3964 109.597 63.2993 109.945 63.2712C110.294 63.2431 110.644 63.2846 110.976 63.3933L121.525 66.8421C122.028 67.0064 122.492 67.2693 122.891 67.6154C123.29 67.9614 123.615 68.3835 123.847 68.8568C124.079 69.33 124.214 69.8449 124.243 70.3708C124.272 70.8968 124.195 71.4232 124.017 71.919L118.56 87.0664C118.315 87.7541 117.829 88.3306 117.191 88.6897Z" fill="#3F3D56"/>
<path d="M95.1173 62.213C99.1438 62.213 102.408 58.9627 102.408 54.9533C102.408 50.9439 99.1438 47.6936 95.1173 47.6936C91.0908 47.6936 87.8267 50.9439 87.8267 54.9533C87.8267 58.9627 91.0908 62.213 95.1173 62.213Z" fill="#FFB6B6"/>
<path d="M70.4637 62.3223C71.1327 63.6136 72.2298 64.6348 73.5687 65.2126C74.103 65.455 74.6649 65.6321 75.242 65.7399C75.4051 65.0958 75.6662 64.4803 76.0163 63.9148C75.8996 64.5522 75.8996 65.2053 76.0163 65.8427C76.8954 65.9143 77.78 65.805 78.6149 65.5215C79.4349 65.2438 80.1786 64.7797 80.787 64.1659C81.3955 63.5521 81.8519 62.8056 82.1201 61.9856C82.7008 60.0612 82.0753 58.0059 82.026 55.9973C81.9752 53.9885 82.9332 51.5859 84.9359 51.3373C86.461 51.1477 86.2724 51.2949 87.3683 52.3678C85.8354 54.0634 89.5725 61.5735 91.5778 61.2416C92.7115 61.054 93.5458 60.1577 93.77 60.1888C94.9182 62.9888 91.4643 66.9599 94.2037 68.2636L94.0005 67.9957C92.5666 65.637 96.8095 61.6531 95.3755 59.2943C94.9758 58.6345 94.5601 57.8609 94.8075 57.1309C95.0422 56.4369 96.231 56.2173 96.4818 56.8489C96.0741 55.4011 97.2123 53.7018 98.724 53.554C100.067 53.4221 99.9896 53.8033 101.27 54.151C101.434 53.6018 101.669 53.0764 101.971 52.5886C101.869 53.1451 101.857 53.7143 101.934 54.2747C102.396 54.3296 102.863 54.2311 103.263 53.9946C104.445 53.2887 104.481 51.4667 103.668 50.3577C102.854 49.2486 101.491 48.7009 100.176 48.2866C100.164 45.5172 92.6808 44.1915 91.3045 46.7662C91.1629 44.6815 88.763 43.2772 86.6956 43.6313C84.6282 43.9854 82.9972 45.6361 82.0029 47.476C81.0087 49.3144 80.5152 51.3729 79.7873 53.3311C79.0595 55.2893 78.0191 57.2419 76.2763 58.4037C74.5338 59.5641 71.9441 59.6695 70.4891 58.1655C70.1573 58.8077 69.982 59.5187 69.9776 60.2409C69.9732 60.963 70.1397 61.6761 70.4637 62.3223Z" fill="#2F2E41"/>
<path d="M77.9444 95.5204C78.0952 95.4003 78.2589 95.2971 78.4324 95.2126C81.223 93.8297 89.901 90.2399 96.6865 90.3872C109.742 90.6706 126.358 105.018 122.491 114.653C119.548 121.985 104.92 126.156 94.2419 122.82C79.2825 118.146 73.3779 99.1459 77.9444 95.5204Z" fill="#3F3D56"/>
<path d="M23.744 148.337C19.4779 147.536 15.7016 128.398 24.0951 118.972C26.9708 115.743 30.5579 114.338 35.3294 113.03C62.7927 105.501 83.7394 112.676 86.5543 114.428C89.3629 116.176 94.2866 142.512 87.9904 146.24C84.4479 148.337 77.4264 149.386 73.9475 146.939C68.8285 143.338 77.4208 133.999 73.5964 127.712C69.2566 120.578 46.4039 118.175 34.9466 125.265C22.7228 132.829 47.9363 152.882 23.744 148.337Z" fill="#F2F2F2"/>
<path d="M52.2669 115.799H35.9688C31.9454 111.959 29.0687 108.259 31.3718 105.187C31.3718 104.305 31.7241 103.458 32.351 102.833C32.978 102.209 33.8284 101.858 34.7151 101.858H53.5206C54.4073 101.858 55.2577 102.209 55.8846 102.833C56.5116 103.458 56.8638 104.305 56.8638 105.187C57.7407 108.687 56.1742 112.225 52.2669 115.799Z" fill="#CCCCCC"/>
<path d="M49.3399 97.6676C49.1852 97.6746 49.0321 97.6342 48.9013 97.5517C48.7705 97.4693 48.6684 97.3488 48.6086 97.2066C48.5489 97.0644 48.5345 96.9073 48.5675 96.7567C48.6004 96.6061 48.679 96.4692 48.7927 96.3645L48.8444 96.1597C48.8376 96.1433 48.8308 96.1269 48.8239 96.1106C48.6681 95.7442 48.407 95.4318 48.0735 95.2126C47.74 94.9935 47.3489 94.8773 46.9493 94.8788C46.5497 94.8803 46.1595 94.9993 45.8276 95.2209C45.4957 95.4425 45.237 95.7569 45.084 96.1244C44.4723 97.5914 43.6935 99.0608 43.5017 100.612C43.4173 101.298 43.4529 101.992 43.607 102.666C42.1704 99.5454 41.4243 96.1536 41.4195 92.7207C41.4192 91.8593 41.4673 90.9985 41.5635 90.1424C41.643 89.4406 41.7533 88.7438 41.8944 88.0519C42.6645 84.2982 44.3177 80.7798 46.7185 77.7858C47.8805 77.1545 48.8202 76.1837 49.4109 75.0042C49.625 74.5802 49.7762 74.1276 49.8601 73.6605C49.729 73.6776 49.3658 71.6898 49.4647 71.5678C49.282 71.2918 48.9551 71.1546 48.7556 70.8853C47.7634 69.5458 46.3964 69.7797 45.6828 71.5999C44.1583 72.3661 44.1436 73.6367 45.079 74.8587C45.6741 75.6361 45.7558 76.6881 46.278 77.5204C46.2243 77.5889 46.1684 77.6552 46.1147 77.7237C45.1327 78.9811 44.2768 80.3313 43.5593 81.7549C43.7338 80.16 43.5255 78.5467 42.9516 77.0476C42.37 75.6505 41.2799 74.4738 40.3199 73.266C39.1668 71.8153 36.8023 72.4484 36.5991 74.2875C36.5971 74.3053 36.5952 74.3231 36.5933 74.3409C36.7359 74.421 36.8755 74.506 37.0121 74.5959C37.1837 74.7101 37.3166 74.8731 37.3935 75.0638C37.4704 75.2545 37.4877 75.4638 37.443 75.6644C37.3984 75.865 37.2939 76.0475 37.1434 76.188C36.9928 76.3285 36.8031 76.4204 36.5992 76.4517L36.5783 76.4549C36.6291 76.9666 36.7189 77.4737 36.8469 77.9719C35.6154 82.7144 38.2742 84.4418 42.0706 84.5193C42.1544 84.5621 42.2361 84.6049 42.3199 84.6456C41.599 86.6798 41.1469 88.7987 40.9748 90.9491C40.8773 92.2177 40.8831 93.4921 40.992 94.7598L40.9855 94.7149C40.7104 93.3052 39.9552 92.0333 38.8474 91.1138C37.2021 89.768 34.8775 89.2724 33.1024 88.1906C32.9138 88.07 32.6944 88.0056 32.4703 88.005C32.2461 88.0045 32.0264 88.0678 31.8372 88.1875C31.648 88.3072 31.497 88.4782 31.4023 88.6805C31.3075 88.8828 31.2727 89.1079 31.3022 89.3292C31.3046 89.3449 31.307 89.3607 31.3094 89.3764C31.574 89.4837 31.8317 89.6074 32.0808 89.7466C32.2234 89.8267 32.363 89.9117 32.4996 90.0016C32.6712 90.1158 32.8041 90.2789 32.881 90.4695C32.9579 90.6602 32.9751 90.8695 32.9305 91.0701C32.8859 91.2707 32.7814 91.4532 32.6309 91.5937C32.4803 91.7342 32.2906 91.8261 32.0867 91.8574L32.0658 91.8606C32.0508 91.8627 32.0379 91.8649 32.0228 91.867C32.475 92.9419 33.1095 93.9314 33.8987 94.7919C34.6688 98.932 37.9762 99.3247 41.5141 98.1191H41.5163C41.9044 99.7988 42.4669 101.434 43.1945 102.998H49.1896C49.2111 102.931 49.2305 102.863 49.2498 102.796C48.6949 102.831 48.1378 102.798 47.5909 102.698C48.0357 102.155 48.4805 101.607 48.9253 101.063C48.9353 101.053 48.9446 101.042 48.9533 101.031C49.1789 100.753 49.4067 100.477 49.6323 100.199L49.6324 100.199C49.6444 99.3459 49.5462 98.4953 49.3401 97.6677L49.3399 97.6676Z" fill="#CCCCCC"/>
<path d="M69.7883 114.929C69.8877 115.217 70.0763 115.467 70.3271 115.642C70.5778 115.817 70.8777 115.908 71.1838 115.903L77.1628 115.749C77.4711 115.743 77.7691 115.638 78.0125 115.45C78.2558 115.261 78.4312 114.999 78.5126 114.703L79.3587 105.694C79.6589 105.829 79.9857 105.896 80.3152 105.889C80.8933 105.875 81.442 105.632 81.8405 105.215C82.239 104.798 82.4548 104.24 82.4403 103.664C82.4257 103.089 82.1822 102.542 81.7631 102.146C81.3441 101.749 80.7838 101.534 80.2057 101.548C80.074 101.548 79.9427 101.562 79.8139 101.589C79.6738 101.438 79.5036 101.318 79.3141 101.237C79.1247 101.155 78.9202 101.114 78.7139 101.116L69.5168 101.353C69.4405 101.356 69.3646 101.365 69.2899 101.381C69.0882 101.418 68.8969 101.498 68.7289 101.616C68.5608 101.733 68.42 101.884 68.3158 102.06C68.2116 102.236 68.1464 102.433 68.1247 102.636C68.1031 102.839 68.1253 103.044 68.1901 103.238L69.7883 114.929ZM79.5322 105.082L80.1343 102.935C80.2028 102.687 80.2044 102.426 80.1389 102.177C80.1681 102.177 80.1939 102.163 80.2231 102.163C80.6358 102.154 81.0351 102.309 81.3334 102.594C81.6316 102.878 81.8045 103.268 81.8142 103.679C81.8239 104.09 81.6695 104.488 81.3849 104.786C81.1003 105.084 80.7088 105.257 80.2961 105.268C80.0292 105.276 79.7651 105.212 79.5322 105.082Z" fill="#CCCCCC"/>
<path d="M69.2898 101.381C69.4857 102.496 71.6887 103.281 74.3376 103.144C76.7734 103.033 78.7651 102.181 79.13 101.172C78.995 101.132 78.8546 101.113 78.7138 101.116L69.5167 101.353C69.4404 101.356 69.3645 101.365 69.2898 101.381Z" fill="white"/>
<path d="M0.320205 148.76L201.68 148.842C201.765 148.842 201.846 148.808 201.906 148.749C201.966 148.689 202 148.608 202 148.523C202 148.439 201.966 148.358 201.906 148.298C201.846 148.238 201.765 148.204 201.68 148.204L0.320205 148.122C0.235281 148.122 0.153836 148.156 0.0937857 148.215C0.0337353 148.275 0 148.356 0 148.441C0 148.525 0.0337353 148.607 0.0937857 148.666C0.153836 148.726 0.235281 148.76 0.320205 148.76Z" fill="#CACACA"/>
<path d="M113.257 77.5008C112.709 77.5206 112.191 77.7525 111.812 78.147C111.434 78.5416 111.225 79.0676 111.23 79.6132C111.233 79.7241 111.245 79.8345 111.266 79.9435L104.946 83.6585L105.711 87.5147L113.815 81.4936C114.262 81.3716 114.656 81.1058 114.935 80.7376C115.214 80.3694 115.363 79.9195 115.358 79.4582C115.353 79.1958 115.296 78.9369 115.19 78.6964C115.085 78.4559 114.933 78.2384 114.742 78.0565C114.552 77.8746 114.328 77.7317 114.083 77.636C113.837 77.5403 113.575 77.4938 113.312 77.4989C113.293 77.4993 113.275 77.4999 113.257 77.5008Z" fill="#FFB6B6"/>
<path d="M108.08 86.3572C107.911 86.1317 107.838 86.0373 107.8 86.0632C107.701 86.1227 107.796 86.9194 107.1 88.308C106.12 90.2588 95.8468 93.2466 95.8468 93.2466L94.582 90.9408L89.0185 80.8079L87.1008 72.686C87.0338 72.4028 87.0012 72.1126 87.0038 71.8216C88.7136 70.6236 90.5293 69.5829 92.4285 68.7124C93.1873 69.141 93.7659 69.8274 94.0583 70.6459L97.888 81.3384L99.4162 85.6075C99.4162 85.6075 102.112 83.688 103.09 84.0403C104.066 84.3949 104.344 83.8978 103.705 82.3065C103.067 80.7151 104.025 82.3532 105.14 82.4573C106.257 82.5629 105.14 82.4573 105.667 81.782C106.195 81.1068 109.606 80.7268 109.606 80.7268L109.678 80.8775L111 83.5849L111.378 84.3628C111.378 84.3628 109.977 85.8767 109.639 86.1784C109.299 86.4823 109.194 86.4613 109.361 86.8076C109.525 87.1522 108.667 87.1366 108.08 86.3572Z" fill="#6C63FF"/>
</g>
<defs>
<clipPath id="clip0_631_950">
<rect width="202" height="149" fill="white"/>
</clipPath>
</defs>
</svg>
