<svg width="153" height="120" viewBox="0 0 153 120" fill="none" xmlns="http://www.w3.org/2000/svg">
<g clip-path="url(#clip0_631_2414)">
<path d="M93.9577 106.581L89.8744 110.327L93.1195 104.901C90.5628 100.281 86.3814 96.2886 86.3814 96.2886C86.3814 96.2886 77.7065 104.57 77.7065 111.081C77.7065 117.591 81.5904 119.864 86.3814 119.864C91.1724 119.864 95.0563 117.591 95.0563 111.081C95.0563 109.632 94.6259 108.095 93.9577 106.581Z" fill="#E87E1C"/>
<path d="M88.8243 110.53V110.851C88.8051 114.581 88.1738 117.491 86.9351 119.54C86.9176 119.57 86.8985 119.599 86.8809 119.629L86.7422 119.545L86.6099 119.462C87.9841 117.249 88.4704 114.121 88.4879 110.868C88.4895 110.763 88.4911 110.657 88.4895 110.55C88.4847 109.173 88.4002 107.78 88.2647 106.426C88.2551 106.322 88.244 106.215 88.2328 106.109C88.0447 104.323 87.7737 102.617 87.4963 101.135C87.4772 101.03 87.4564 100.925 87.4357 100.822C86.9559 98.3151 86.4664 96.4994 86.3548 96.0975C86.3421 96.0482 86.3341 96.0212 86.3325 96.0149L86.484 95.972L86.4856 95.9704L86.6386 95.9275C86.6402 95.9339 86.6673 96.0244 86.7119 96.1928C86.8825 96.8219 87.3257 98.5296 87.7609 100.782C87.7801 100.884 87.8008 100.989 87.8199 101.094C88.0463 102.296 88.2679 103.64 88.4433 105.051C88.4879 105.405 88.5277 105.754 88.5628 106.099C88.5756 106.206 88.5867 106.312 88.5963 106.417C88.743 107.88 88.819 109.251 88.8243 110.53Z" fill="white"/>
<path d="M87.7611 100.782C87.6543 100.797 87.5459 100.811 87.4359 100.822C87.1372 100.853 86.8371 100.868 86.5368 100.868C85.257 100.87 83.9931 100.585 82.8382 100.036C82.7712 100.12 82.7043 100.204 82.6357 100.29C83.8506 100.881 85.1849 101.187 86.5368 101.186C86.8574 101.186 87.1777 101.169 87.4965 101.135C87.6049 101.124 87.7133 101.11 87.8201 101.094C88.7018 100.968 89.5592 100.709 90.3629 100.326C90.2943 100.239 90.2274 100.153 90.162 100.069C89.4013 100.423 88.5923 100.664 87.7611 100.782Z" fill="white"/>
<path d="M88.5627 106.099C88.4527 106.105 88.3427 106.109 88.2327 106.109C88.1992 106.11 88.1642 106.11 88.1307 106.11C86.7439 106.11 85.3777 105.776 84.1486 105.136C82.9194 104.496 81.8637 103.57 81.0715 102.436C81.0078 102.53 80.944 102.623 80.8818 102.719C81.7075 103.866 82.7958 104.801 84.0563 105.446C85.3169 106.091 86.7136 106.428 88.1307 106.428C88.1754 106.428 88.22 106.428 88.2646 106.426C88.3762 106.425 88.4862 106.422 88.5962 106.417C90.2984 106.33 91.9394 105.756 93.3231 104.765C93.272 104.671 93.221 104.577 93.1684 104.483C91.8237 105.457 90.223 106.019 88.5627 106.099Z" fill="white"/>
<path d="M88.8244 110.53C88.7129 110.539 88.6013 110.546 88.4897 110.55C88.3701 110.555 88.2505 110.558 88.131 110.558C86.2675 110.556 84.4549 109.953 82.9645 108.838C81.4741 107.723 80.3861 106.158 79.8634 104.375C79.7917 104.504 79.7199 104.631 79.6514 104.76C80.2403 106.538 81.3766 108.086 82.8989 109.184C84.4211 110.282 86.2518 110.874 88.131 110.876C88.2505 110.876 88.3701 110.874 88.4881 110.868C88.6013 110.865 88.7129 110.858 88.8244 110.851C91.0785 110.675 93.1813 109.652 94.7071 107.989C94.6736 107.872 94.6354 107.756 94.5971 107.638C93.1234 109.313 91.0527 110.351 88.8244 110.53Z" fill="white"/>
<path d="M20.9271 42.3449C32.4847 42.3449 41.8541 33.0087 41.8541 21.4918C41.8541 9.97493 32.4847 0.638672 20.9271 0.638672C9.36936 0.638672 0 9.97493 0 21.4918C0 33.0087 9.36936 42.3449 20.9271 42.3449Z" fill="#E4E4E4"/>
<path d="M20.927 38.8695C30.5584 38.8695 38.3662 31.0892 38.3662 21.4919C38.3662 11.8945 30.5584 4.11426 20.927 4.11426C11.2956 4.11426 3.48779 11.8945 3.48779 21.4919C3.48779 31.0892 11.2956 38.8695 20.927 38.8695Z" fill="#E87E1C"/>
<path d="M76.4998 42.3449C88.0575 42.3449 97.4268 33.0087 97.4268 21.4918C97.4268 9.97493 88.0575 0.638672 76.4998 0.638672C64.9421 0.638672 55.5728 9.97493 55.5728 21.4918C55.5728 33.0087 64.9421 42.3449 76.4998 42.3449Z" fill="#E87E1C"/>
<path d="M76.4998 38.8695C86.1312 38.8695 93.939 31.0892 93.939 21.4919C93.939 11.8945 86.1312 4.11426 76.4998 4.11426C66.8683 4.11426 59.0605 11.8945 59.0605 21.4919C59.0605 31.0892 66.8683 38.8695 76.4998 38.8695Z" fill="white"/>
<path d="M132.073 42.3449C143.631 42.3449 153 33.0087 153 21.4918C153 9.97493 143.631 0.638672 132.073 0.638672C120.515 0.638672 111.146 9.97493 111.146 21.4918C111.146 33.0087 120.515 42.3449 132.073 42.3449Z" fill="#E87E1C"/>
<path d="M132.073 38.8695C141.704 38.8695 149.512 31.0892 149.512 21.4919C149.512 11.8945 141.704 4.11426 132.073 4.11426C122.442 4.11426 114.634 11.8945 114.634 21.4919C114.634 31.0892 122.442 38.8695 132.073 38.8695Z" fill="white"/>
<path d="M19.4451 27.7758C19.414 27.7758 19.3828 27.7751 19.3515 27.7736C19.0757 27.7603 18.806 27.6878 18.561 27.5609C18.316 27.4341 18.1014 27.2559 17.9319 27.0386L15.2568 23.6114C14.9454 23.2114 14.8058 22.7046 14.8688 22.2022C14.9318 21.6998 15.1922 21.2428 15.5929 20.9315L15.6892 20.8569C16.0906 20.5465 16.5992 20.4074 17.1034 20.4702C17.6076 20.533 18.0662 20.7925 18.3787 21.1917C18.5295 21.3849 18.7203 21.5434 18.9382 21.6562C19.1562 21.769 19.396 21.8336 19.6413 21.8456C19.8866 21.8575 20.1316 21.8164 20.3595 21.7252C20.5874 21.6341 20.7928 21.4949 20.9617 21.3172L26.3935 15.6037C26.5666 15.4216 26.774 15.2753 27.0038 15.1731C27.2337 15.0709 27.4815 15.0148 27.7331 15.008C27.9847 15.0013 28.2351 15.0439 28.4702 15.1336C28.7052 15.2233 28.9202 15.3583 29.1029 15.5308L29.1916 15.6145C29.5606 15.9628 29.7755 16.4429 29.7893 16.9492C29.803 17.4555 29.6143 17.9465 29.2647 18.3141L20.836 27.1795C20.657 27.3679 20.4414 27.518 20.2023 27.6205C19.9631 27.723 19.7055 27.7759 19.4451 27.7758Z" fill="white"/>
<path d="M67.3153 17.2694H53.541V5.3325C53.5552 4.59339 53.8629 3.89003 54.3967 3.37662C54.9304 2.86321 55.6467 2.58164 56.3885 2.59363H60.9671C64.4675 2.59363 67.3153 5.3328 67.3153 8.69969V17.2694Z" fill="#2F2E41"/>
<path d="M72.4146 117.157L69.7998 117.157L68.5557 107.107L72.415 107.107L72.4146 117.157Z" fill="#FFB6B6"/>
<path d="M73.0819 119.683L64.6504 119.683V119.576C64.6505 118.709 64.9962 117.877 65.6117 117.264C66.2271 116.651 67.0618 116.306 67.9322 116.306H67.9324L73.0821 116.306L73.0819 119.683Z" fill="#2F2E41"/>
<path d="M48.313 117.157L45.698 117.157L44.4541 107.107L48.3134 107.107L48.313 117.157Z" fill="#FFB6B6"/>
<path d="M48.9799 119.683L40.5483 119.683V119.576C40.5484 118.709 40.8942 117.877 41.5096 117.264C42.1251 116.651 42.9598 116.306 43.8301 116.306H43.8303L48.98 116.306L48.9799 119.683Z" fill="#2F2E41"/>
<path d="M51.4705 36.4146L49.7642 47.254L65.9741 47.4664L63.8412 37.0523L51.4705 36.4146Z" fill="#FFB6B6"/>
<path d="M50.2343 44.6074L45.0715 58.306L44.4316 115.075H48.8041L59.2553 69.4641L68.8533 113.884H73.1191L70.1331 63.9382C70.1331 63.9382 71.0136 53.9134 66.5072 47.998L65.4102 44.8401L50.2343 44.6074Z" fill="#2F2E41"/>
<path d="M72.3798 55.2861C71.9284 55.1635 71.5096 54.9439 71.1526 54.6425C70.7957 54.3412 70.5095 53.9655 70.314 53.542C70.1185 53.1185 70.0186 52.6575 70.0213 52.1913C70.024 51.7252 70.1292 51.2653 70.3296 50.8441L63.4336 28.4409L68.5059 27.439L74.8129 49.3988C75.5008 49.7811 76.024 50.4015 76.2834 51.1425C76.5429 51.8836 76.5205 52.6937 76.2206 53.4194C75.9207 54.145 75.364 54.7359 74.6561 55.08C73.9483 55.424 73.1383 55.4974 72.3798 55.2861H72.3798Z" fill="#FFB6B6"/>
<path d="M63.2541 42.4007L52.0801 42.1858C51.7608 42.179 51.4524 42.0681 51.2023 41.8701C50.9523 41.672 50.7742 41.3977 50.6955 41.0892C50.0965 38.7259 48.7785 32.5668 49.4776 26.4324C49.6156 25.244 49.9913 24.0952 50.5826 23.0541C51.174 22.013 51.9688 21.1006 52.9202 20.371C53.8716 19.6413 54.9602 19.1093 56.1216 18.8062C57.283 18.5032 58.4936 18.4353 59.6817 18.6066C60.9351 18.7855 62.1364 19.2263 63.2068 19.9003C64.2771 20.5743 65.1924 21.4662 65.8925 22.5174C66.5927 23.5687 67.0618 24.7556 67.2692 26.0002C67.4766 27.2449 67.4176 28.5191 67.096 29.7395C65.6895 35.062 64.895 38.8698 64.7347 41.0574C64.7109 41.3737 64.5839 41.6736 64.3731 41.9112C64.1623 42.1488 63.8792 42.3111 63.5671 42.3733C63.4743 42.3917 63.3798 42.401 63.2852 42.4011C63.2748 42.4011 63.2645 42.401 63.2541 42.4007Z" fill="#E4E4E4"/>
<path d="M29.3123 22.7223C29.3794 22.8723 29.4345 23.0273 29.4772 23.186L43.4639 27.922L46.1665 25.5693L50.2628 29.1695L45.8845 33.7978C45.5308 34.1717 45.0649 34.4212 44.5568 34.5088C44.0487 34.5965 43.5258 34.5175 43.0666 34.2837L28.1 26.6658C27.5587 26.9966 26.9293 27.1554 26.2953 27.121C25.6612 27.0867 25.0528 26.8608 24.5507 26.4734C24.0487 26.086 23.6769 25.5555 23.4849 24.9525C23.2928 24.3494 23.2895 23.7024 23.4755 23.0974C23.6615 22.4925 24.0279 21.9583 24.526 21.5659C25.024 21.1735 25.6302 20.9415 26.2638 20.9007C26.8975 20.86 27.5285 21.0125 28.0731 21.3379C28.6176 21.6633 29.0499 22.1461 29.3123 22.7223V22.7223Z" fill="#FFB6B6"/>
<path d="M43.4927 27.1666C43.4938 26.9747 43.5364 26.7853 43.6177 26.6112C43.6989 26.4372 43.8169 26.2827 43.9636 26.1583L49.0849 21.8113C49.733 21.0712 50.6492 20.6175 51.6325 20.5496C52.6158 20.4818 53.586 20.8053 54.3303 21.4493C55.0746 22.0932 55.5322 23.005 55.6027 23.9847C55.6733 24.9644 55.351 25.932 54.7066 26.6752L51.0596 32.3342C50.9555 32.4957 50.8177 32.633 50.6556 32.7366C50.4935 32.8403 50.3108 32.9079 50.1201 32.9348C49.9294 32.9618 49.7351 32.9475 49.5505 32.8929C49.3658 32.8383 49.1951 32.7447 49.05 32.6184L43.9513 28.1808C43.8061 28.0546 43.69 27.8986 43.6109 27.7236C43.5317 27.5486 43.4914 27.3586 43.4927 27.1666Z" fill="#E4E4E4"/>
<path d="M63.1247 34.1157C62.9542 34.0264 62.8051 33.9015 62.6875 33.7494C62.5699 33.5974 62.4866 33.4219 62.4432 33.2349L60.9291 26.7032C60.5684 25.7892 60.5862 24.77 60.9786 23.8691C61.371 22.9682 62.1059 22.2591 63.0221 21.8973C63.9384 21.5356 64.9613 21.5506 65.8664 21.9392C66.7715 22.3278 67.4851 23.0582 67.8506 23.9703L71.2124 29.802C71.3083 29.9685 71.3671 30.1536 71.3848 30.3447C71.4025 30.5358 71.3786 30.7285 71.3148 30.9096C71.251 31.0907 71.1488 31.256 71.0152 31.3942C70.8815 31.5324 70.7195 31.6402 70.5402 31.7104L64.2392 34.1771C64.06 34.2473 63.8676 34.2782 63.6752 34.2677C63.4829 34.2571 63.2951 34.2052 63.1247 34.1157Z" fill="#E4E4E4"/>
<path d="M68.5457 3.76003C69.063 2.55313 68.1733 1.0175 66.5584 0.330103C64.9435 -0.357293 63.2149 0.0638456 62.6975 1.27075C62.1802 2.47766 63.0699 4.0133 64.6848 4.7007C66.2997 5.38809 68.0283 4.96694 68.5457 3.76003Z" fill="#2F2E41"/>
<path d="M63.5356 12.731C65.2632 9.58179 64.1017 5.63332 60.9414 3.91182C57.7811 2.19033 53.8186 3.34769 52.091 6.49688C50.3634 9.64606 51.5249 13.5945 54.6852 15.316C57.8455 17.0375 61.808 15.8802 63.5356 12.731Z" fill="#FFB6B6"/>
<path d="M61.391 2.17108H53.9315C53.3847 2.16403 52.8554 2.36326 52.4497 2.72882C52.0441 3.09437 51.7922 3.59923 51.7444 4.14213C51.7251 4.43064 51.7655 4.72002 51.863 4.99235C51.9606 5.26467 52.1132 5.51414 52.3114 5.72529C52.5097 5.93643 52.7493 6.10477 53.0155 6.21985C53.2817 6.33494 53.5688 6.39433 53.859 6.39433C54.421 6.39433 54.96 6.61681 55.3574 7.01281C55.7548 7.40882 55.9781 7.94592 55.9781 8.50596V17.1636H67.6332V8.39123C67.6332 7.57439 67.4717 6.76554 67.158 6.01088C66.8443 5.25622 66.3846 4.57051 65.8049 3.99292C65.2253 3.41532 64.5371 2.95715 63.7798 2.64456C63.0224 2.33197 62.2107 2.17108 61.391 2.17108Z" fill="#2F2E41"/>
<path d="M98.1625 120H17.4243C17.3681 120 17.3142 119.978 17.2745 119.938C17.2347 119.899 17.2124 119.845 17.2124 119.789C17.2124 119.733 17.2347 119.679 17.2745 119.639C17.3142 119.6 17.3681 119.578 17.4243 119.578H98.1625C98.2188 119.578 98.2726 119.6 98.3124 119.639C98.3521 119.679 98.3745 119.733 98.3745 119.789C98.3745 119.845 98.3521 119.899 98.3124 119.938C98.2726 119.978 98.2188 120 98.1625 120Z" fill="#CACACA"/>
</g>
<defs>
<clipPath id="clip0_631_2414">
<rect width="153" height="120" fill="white"/>
</clipPath>
</defs>
</svg>
