<svg width="164" height="195" viewBox="0 0 164 195" fill="none" xmlns="http://www.w3.org/2000/svg">
<g clip-path="url(#clip0_697_696)">
<path d="M63.5184 160.049C60.2552 156.691 55.5263 154.765 50.5442 154.765L50.3521 154.766C47.0705 154.767 43.8475 153.899 41.0128 152.249L40.7178 152.078L40.9554 151.833C42.2416 150.506 43.3156 148.989 44.1398 147.335C43.5545 147.88 42.8563 148.289 42.0948 148.535C41.3333 148.78 40.527 148.855 39.733 148.756C38.8948 148.656 38.09 148.368 37.3791 147.914C36.6683 147.459 36.0697 146.85 35.6284 146.132C33.8872 143.314 31.8115 139.314 31.8115 136.267C31.8142 133.691 32.3547 131.145 33.3985 128.789C34.4424 126.433 35.9666 124.321 37.8741 122.585C39.0817 121.499 40.0463 120.171 40.705 118.688C41.3636 117.204 41.7015 115.599 41.6967 113.977L41.6958 113.746C41.6954 111.61 41.9571 109.482 42.4748 107.409L42.5273 107.2L42.7431 107.208C44.1349 107.255 45.5273 107.138 46.8918 106.861C45.6119 106.704 44.3599 106.372 43.1712 105.874L42.939 105.78L43.0178 105.542C48.4493 102.187 60.7099 103.925 67.8263 87.6796C73.5967 74.5071 93.9567 99.3728 93.9567 113.746C93.9567 115.212 92.502 117.151 93.591 118.12C105.363 128.599 97.2405 135.327 94.6796 142.098C94.072 143.705 95.3895 145.468 95.3895 147.206C95.3895 147.501 95.3819 147.805 95.367 148.111L95.3444 148.58L94.9518 148.32C94.1754 147.812 93.4556 147.223 92.8048 146.563C93.4799 148.113 93.7981 149.794 93.7359 151.483C93.6737 153.172 93.2328 154.826 92.4455 156.322C91.2118 158.645 90.0183 160.309 88.8981 161.265C85.3097 164.329 80.6838 165.91 75.9662 165.683C71.2487 165.457 66.7959 163.442 63.5184 160.049H63.5184Z" fill="#E6E6E6"/>
<path d="M83.228 195C83.3082 195 83.3857 194.971 83.4463 194.918C83.5068 194.866 83.5464 194.793 83.5577 194.714C83.5719 194.615 84.9594 184.63 83.7132 171.36C82.5624 159.105 78.8665 141.454 67.7952 126.957C67.7687 126.922 67.7355 126.892 67.6977 126.87C67.6598 126.848 67.618 126.834 67.5745 126.828C67.5311 126.822 67.487 126.825 67.4446 126.836C67.4022 126.847 67.3625 126.867 67.3276 126.893C67.2928 126.92 67.2635 126.953 67.2415 126.991C67.2194 127.028 67.2051 127.07 67.1993 127.114C67.1934 127.157 67.1962 127.201 67.2074 127.243C67.2187 127.285 67.2381 127.325 67.2647 127.36C78.2405 141.732 81.9065 159.254 83.0493 171.422C84.2882 184.615 82.9115 194.522 82.8975 194.62C82.8908 194.668 82.8943 194.716 82.9079 194.761C82.9214 194.807 82.9446 194.849 82.976 194.885C83.0073 194.921 83.046 194.95 83.0895 194.97C83.133 194.99 83.1802 195 83.228 195V195Z" fill="#2395FF"/>
<path d="M74.1925 147.405C74.263 147.406 74.3316 147.383 74.3886 147.342C74.4456 147.301 74.4881 147.243 74.5099 147.176C74.5317 147.109 74.5317 147.037 74.5099 146.97C74.4882 146.903 74.4458 146.845 74.3888 146.804C71.2342 144.673 67.8262 142.942 64.2434 141.651C58.646 139.606 50.1343 137.753 41.3717 140.535C41.3299 140.548 41.2911 140.57 41.2575 140.598C41.224 140.626 41.1963 140.66 41.1761 140.699C41.1559 140.738 41.1436 140.78 41.1399 140.824C41.1362 140.868 41.1411 140.912 41.1544 140.953C41.1677 140.995 41.1891 141.034 41.2174 141.067C41.2457 141.1 41.2803 141.128 41.3193 141.148C41.3582 141.168 41.4008 141.18 41.4445 141.184C41.4882 141.187 41.5322 141.182 41.5739 141.169C50.157 138.444 58.5144 140.267 64.0141 142.276C67.5393 143.545 70.8926 145.247 73.9968 147.342C74.0536 147.383 74.1222 147.405 74.1925 147.405Z" fill="#2395FF"/>
<path d="M89.4536 109.482C89.4588 109.412 89.4415 109.342 89.4044 109.283C89.3672 109.223 89.3121 109.177 89.2468 109.15C89.1816 109.124 89.1096 109.118 89.0412 109.135C88.9729 109.152 88.9116 109.19 88.8662 109.244C86.5092 112.23 84.5334 115.496 82.9844 118.969C80.5374 124.392 78.0715 132.729 80.222 141.649C80.2322 141.692 80.2507 141.732 80.2764 141.767C80.3022 141.803 80.3346 141.833 80.372 141.855C80.4093 141.878 80.4508 141.894 80.4941 141.9C80.5374 141.907 80.5816 141.906 80.6242 141.895C80.6668 141.885 80.707 141.867 80.7424 141.841C80.7779 141.815 80.8079 141.783 80.8307 141.745C80.8536 141.708 80.8688 141.667 80.8756 141.623C80.8824 141.58 80.8806 141.536 80.8703 141.494C78.764 132.756 81.1882 124.57 83.5925 119.242C85.1153 115.825 87.058 112.611 89.376 109.673C89.4214 109.619 89.4486 109.552 89.4536 109.482Z" fill="#2395FF"/>
<path d="M153.768 194.648H127.224L127.11 194.441C126.771 193.827 126.443 193.176 126.137 192.508C123.403 186.668 122.247 179.988 121.228 174.095L120.46 169.653C120.367 169.115 120.437 168.561 120.661 168.063C120.885 167.565 121.253 167.145 121.718 166.857C122.183 166.569 122.723 166.426 123.27 166.446C123.816 166.466 124.345 166.648 124.787 166.969C128.821 169.898 132.857 172.824 136.894 175.747C138.422 176.857 140.168 178.141 141.84 179.529C142.001 178.747 142.17 177.963 142.338 177.19C142.455 176.656 142.728 176.169 143.124 175.792C143.519 175.414 144.018 175.162 144.558 175.069C145.097 174.976 145.652 175.046 146.152 175.269C146.651 175.493 147.073 175.86 147.362 176.324L150.468 181.302C152.733 184.937 154.732 188.52 154.325 192.384C154.327 192.431 154.323 192.478 154.314 192.524C154.233 193.159 154.081 193.783 153.863 194.384L153.768 194.648Z" fill="#F0F0F0"/>
<path d="M141.402 90.5305L136.279 71.6127C136.06 70.8118 135.533 70.1292 134.814 69.712C134.094 69.2948 133.239 69.1766 132.433 69.3828C132.016 69.4895 131.626 69.6798 131.285 69.9421C130.944 70.2045 130.66 70.5333 130.451 70.9086C130.242 71.2839 130.111 71.6978 130.067 72.125C130.023 72.5523 130.067 72.984 130.196 73.3938L136.121 92.882L139.221 104.875C138.77 105.219 138.435 105.693 138.263 106.234C138.092 106.774 138.09 107.354 138.26 107.895C138.43 108.435 138.763 108.911 139.213 109.257C139.663 109.602 140.209 109.801 140.777 109.826C141.344 109.852 141.906 109.702 142.385 109.398C142.864 109.094 143.238 108.649 143.456 108.126C143.673 107.602 143.724 107.025 143.601 106.471C143.478 105.918 143.187 105.416 142.768 105.033L141.402 90.5305Z" fill="#A0616A"/>
<path d="M98.2949 86.4563L113.86 74.5047C114.518 73.9964 114.949 73.2504 115.06 72.4277C115.172 71.6049 114.955 70.7715 114.456 70.1071C114.198 69.7634 113.872 69.4757 113.499 69.2617C113.126 69.0476 112.713 68.9116 112.285 68.862C111.857 68.8124 111.424 68.8502 111.012 68.9731C110.599 69.0959 110.216 69.3014 109.886 69.5768L94.0994 82.486L84.1754 89.9267C83.6843 89.6419 83.1173 89.5147 82.5512 89.5626C81.9852 89.6105 81.4477 89.8311 81.0117 90.1944C80.5757 90.5577 80.2623 91.0461 80.1142 91.5933C79.9661 92.1405 79.9904 92.7199 80.1839 93.2528C80.3773 93.7857 80.7305 94.2463 81.1954 94.5719C81.6603 94.8976 82.2144 95.0726 82.7825 95.0731C83.3505 95.0736 83.905 94.8996 84.3705 94.5748C84.836 94.25 85.19 93.79 85.3844 93.2575L98.2949 86.4563Z" fill="#A0616A"/>
<path d="M110.981 89.2038L110.295 104.492L131.837 99.8206C130.003 93.6775 128.757 92.6297 130.134 88.3545L110.981 89.2038Z" fill="#A0616A"/>
<path d="M124.227 61.1763H117.049L113.966 66.4392L112.497 66.3583C111.779 66.3187 111.06 66.4257 110.385 66.6728C109.709 66.9198 109.091 67.3017 108.569 67.7951C108.046 68.2886 107.63 68.8831 107.345 69.5425C107.061 70.2018 106.914 70.9122 106.914 71.63L108.724 74.4287C108.724 74.4287 105.487 80.0566 110.149 82.8253C110.149 82.8253 109.318 88.0418 110.149 87.9858C110.981 87.9297 112.896 86.868 110.981 87.9297C109.066 88.9914 109.209 89.1339 109.456 89.3811L109.704 89.6284L129.844 93.0024C129.844 93.0024 130.433 89.107 130.497 88.4122C130.56 87.7173 130.135 89.416 130.56 87.7173C130.986 86.0186 131.624 86.6557 130.986 86.0186C130.347 85.3816 135.123 77.4898 133.161 74.4287L136.306 71.3675C136.306 68.4311 131.579 66.0507 128.636 66.0507H128.259L124.227 61.1763Z" fill="#E6E6E6"/>
<path d="M106.932 188.754H104.027L102.645 177.573L106.932 177.574L106.932 188.754Z" fill="#A0616A"/>
<path d="M98.1638 193.031C98.1652 193.356 98.2949 193.667 98.5248 193.896C98.7547 194.126 99.0662 194.256 99.3916 194.258H104.861L105.03 193.908L105.804 192.315L106.103 193.908L106.17 194.258H108.232L108.203 193.906L107.653 187.324L106.933 187.28L103.824 187.096L103.061 187.05V189.015C102.481 189.63 97.9329 191.955 98.1638 193.031Z" fill="#2F2E41"/>
<path d="M150.11 181.161L147.667 182.73L140.441 174.073L144.048 171.758L150.11 181.161Z" fill="#A0616A"/>
<path d="M145.054 189.492C145.231 189.764 145.509 189.956 145.827 190.025C146.145 190.094 146.477 190.035 146.752 189.861L151.351 186.909L151.304 186.523L151.091 184.766L152.207 185.944L152.452 186.203L154.187 185.089L153.971 184.808L149.94 179.57L149.311 179.922L146.596 181.445L145.929 181.818L146.994 183.471C146.84 184.301 144.276 188.712 145.054 189.492Z" fill="#2F2E41"/>
<path d="M163.662 194.852L73.7012 194.94C73.6114 194.939 73.5255 194.903 73.4622 194.84C73.3988 194.776 73.3633 194.69 73.3633 194.601C73.3633 194.511 73.3988 194.425 73.4622 194.362C73.5255 194.298 73.6114 194.262 73.7012 194.262L163.662 194.174C163.752 194.175 163.838 194.211 163.901 194.274C163.964 194.338 164 194.424 164 194.513C164 194.603 163.964 194.689 163.901 194.752C163.838 194.816 163.752 194.852 163.662 194.852Z" fill="#CACACA"/>
<path d="M131.5 98.0933C131.5 98.0933 117.729 105.361 110.446 100.402C110.446 100.402 108.853 108.101 108.215 108.738C107.576 109.375 106.559 109.653 107.28 110.363C108.002 111.074 108.403 112.034 107.032 113.253C105.661 114.471 104.293 114.085 105.616 115.34C106.938 116.595 101.617 147.383 101.617 147.383C101.617 147.383 102.469 176.016 101.617 176.881C100.766 177.747 99.6281 177.941 100.729 179.012C101.83 180.083 101.83 179.253 101.83 180.729V182.206L102.334 183.674H109.244C109.244 183.674 110.911 181.742 109.244 180.063C107.576 178.384 109.751 177.925 110.26 176.35C110.768 174.775 111.62 176.473 110.768 174.775C109.917 173.076 109.508 173.399 109.5 172.282C109.491 171.165 122.048 127.424 122.048 127.424L123.568 151.634L141.861 178.148L147.245 174.119C147.245 174.119 143.325 168.613 144.242 167.856C145.159 167.099 141.54 166.15 142.681 165.296C143.822 164.442 141.075 163.581 142.111 162.45C143.146 161.318 140.684 158.465 139.258 158.465C137.832 158.465 135.83 153.709 135.83 153.709L138.818 116.142L131.5 98.0933Z" fill="#2F2E41"/>
<path d="M116.904 45.7231C116.807 45.8508 116.03 45.7821 115.097 45.646C113.251 45.3771 112.999 45.6967 111.619 46.9491C109.62 48.7634 110.757 59.829 109.774 62.2266L109.457 62.4599C110.087 62.34 110.705 62.1674 111.305 61.9439C111.644 60.8762 111.984 59.805 112.327 58.7381C112.65 59.5682 112.853 60.44 112.93 61.3272C113.405 61.1403 113.878 60.6832 115.863 60.0702C116.863 59.3934 124.097 58.713 125.027 58.4152C127.387 50.4036 123.583 47.1636 116.904 45.7231Z" fill="#2F2E41"/>
<path d="M119.347 58.0771C123.164 58.0771 126.259 54.9893 126.259 51.1804C126.259 47.3715 123.164 44.2837 119.347 44.2837C115.529 44.2837 112.435 47.3715 112.435 51.1804C112.435 54.9893 115.529 58.0771 119.347 58.0771Z" fill="#A0616A"/>
<path d="M123.699 45.1149C123.309 45.0575 122.934 44.9264 122.594 44.7285C122.426 44.6268 122.289 44.48 122.2 44.3046C122.111 44.1292 122.073 43.9324 122.091 43.7367C122.176 43.2467 122.732 42.9541 123.229 42.9839C123.725 43.0551 124.195 43.2452 124.601 43.5377C124.556 43.0642 124.354 42.6193 124.025 42.2745C123.697 41.9298 123.262 41.7052 122.79 41.6368C123.444 41.6016 124.125 41.5706 124.73 41.8217C125.335 42.0728 125.839 42.6946 125.73 43.3394C126.747 43.2087 127.751 43.9159 128.171 44.8496C128.591 45.7833 128.507 46.8798 128.172 47.847C128.139 47.9951 128.074 48.1344 127.982 48.2554C127.891 48.3764 127.774 48.4763 127.64 48.5484C127.298 48.678 126.929 48.4606 126.632 48.2463C125.083 47.1268 123.672 45.8271 122.431 44.3746" fill="#2F2E41"/>
<path d="M126.712 58.5129C126.419 58.6506 126.572 59.1627 126.344 59.392C126.245 59.4891 126.126 59.5631 125.995 59.6086C125.961 59.1812 125.861 58.7615 125.699 58.3643C125.669 58.2921 125.621 58.2114 125.544 58.2178C125.455 58.2284 125.431 58.3452 125.429 58.4322C125.411 58.8641 125.315 59.2892 125.146 59.6872C125.144 59.6914 125.142 59.6978 125.14 59.702C125.074 59.6999 125.005 59.6978 124.942 59.6956C124.448 59.6765 123.354 58.411 123.111 58.8399C123.967 57.326 125.01 55.0497 125.169 53.3192C125.225 52.9569 125.198 52.5868 125.091 52.2363C125.035 52.0619 124.93 51.9072 124.788 51.7905C124.647 51.6738 124.475 51.6001 124.293 51.5781C124.203 51.574 124.113 51.5898 124.03 51.6243C123.947 51.6588 123.872 51.7112 123.812 51.7777C123.752 51.8443 123.707 51.9233 123.681 52.0092C123.654 52.0951 123.647 52.1857 123.66 52.2745L123.537 52.2575C122.392 51.3275 123.38 49.7116 122.047 49.0725C121.596 48.8559 118.834 49.58 118.346 49.4526C118.336 48.9404 118.231 48.4344 118.038 47.9599C118.008 47.8877 117.959 47.807 117.882 47.8134C117.793 47.824 117.77 47.9408 117.768 48.0278C117.75 48.4597 117.654 48.8848 117.485 49.2827C116.809 49.1872 116.122 49.2232 115.461 49.3889C114.878 49.5418 114.324 49.8051 113.739 49.9452C113.45 50.0337 113.145 50.0623 112.845 50.0295C112.544 49.9966 112.253 49.9029 111.99 49.7541C111.247 49.2572 111.117 48.1573 111.487 47.3462C111.755 46.8257 112.118 46.3592 112.556 45.9703C112.89 45.6475 113.237 45.3375 113.584 45.0275C113.894 44.7493 114.205 44.4712 114.516 44.193C114.907 43.8257 115.324 43.4866 115.763 43.1781C116.464 42.7194 117.252 42.4087 118.078 42.2648C118.904 42.1209 119.751 42.147 120.566 42.3415C121.545 42.575 122.854 42.2459 123.75 42.7024C124.218 42.9424 125.254 43.8618 125.665 44.1888C126.717 45.0233 126.005 44.3433 127.155 44.8258C129.897 45.9762 128.684 57.5866 126.712 58.5129Z" fill="#2F2E41"/>
<path d="M50.1771 108.851C73.8522 108.851 93.0446 89.7017 93.0446 66.0802C93.0446 42.4586 73.8522 23.3096 50.1771 23.3096C26.502 23.3096 7.30957 42.4586 7.30957 66.0802C7.30957 89.7017 26.502 108.851 50.1771 108.851Z" fill="white"/>
<path d="M50.1773 109.278C26.3041 109.278 6.88184 89.8995 6.88184 66.0803C6.88184 42.2612 26.3041 22.8828 50.1773 22.8828C74.0504 22.8828 93.4727 42.2612 93.4727 66.0803C93.4727 89.8995 74.0504 109.278 50.1773 109.278ZM50.1773 23.7367C26.776 23.7367 7.73763 42.732 7.73763 66.0803C7.73763 89.4286 26.776 108.424 50.1773 108.424C73.5785 108.424 92.6169 89.4286 92.6169 66.0803C92.6169 42.732 73.5785 23.7367 50.1773 23.7367Z" fill="#2395FF"/>
<path d="M44.3291 88.3403C43.5888 88.3403 42.8587 88.1683 42.1966 87.838C41.5346 87.5076 40.9587 87.0279 40.5147 86.4369L28.8198 70.8787C28.4441 70.3789 28.1707 69.8101 28.0154 69.2049C27.86 68.5996 27.8256 67.9698 27.9142 67.3513C28.0027 66.7328 28.2125 66.1378 28.5316 65.6002C28.8506 65.0626 29.2727 64.593 29.7737 64.2182C30.2746 63.8433 30.8447 63.5706 31.4513 63.4156C32.0579 63.2605 32.6891 63.2262 33.309 63.3146C33.9289 63.403 34.5253 63.6123 35.0641 63.9306C35.6029 64.249 36.0736 64.6701 36.4493 65.1699L44.1005 75.3477L63.7516 45.938C64.4535 44.8889 65.5442 44.1609 66.7839 43.9139C68.0236 43.6669 69.3109 43.9212 70.3628 44.6209C71.4146 45.3205 72.145 46.4083 72.3933 47.645C72.6416 48.8818 72.3875 50.1663 71.6869 51.2162L48.2971 86.2216C47.874 86.8547 47.3049 87.3773 46.6376 87.7457C45.9702 88.1141 45.2241 88.3175 44.4618 88.3388C44.4175 88.3396 44.3733 88.3403 44.3291 88.3403Z" fill="#2395FF"/>
<path d="M94.3436 25.982C94.4629 25.1643 93.6045 24.3628 92.4263 24.1917C91.2482 24.0207 90.1965 24.5449 90.0772 25.3626C89.958 26.1804 90.8164 26.9819 91.9945 27.1529C93.1726 27.324 94.2244 26.7997 94.3436 25.982Z" fill="#E6E6E6"/>
<path d="M108.37 24.6163C108.489 23.7986 107.631 22.997 106.453 22.826C105.275 22.655 104.223 23.1792 104.104 23.9969C103.984 24.8147 104.843 25.6162 106.021 25.7872C107.199 25.9582 108.251 25.434 108.37 24.6163Z" fill="#2395FF"/>
<path d="M90.5018 14.6519C90.6211 13.8342 89.7627 13.0327 88.5845 12.8616C87.4064 12.6906 86.3547 13.2149 86.2354 14.0326C86.1162 14.8503 86.9746 15.6518 88.1527 15.8229C89.3309 15.9939 90.3826 15.4696 90.5018 14.6519Z" fill="#FF6584"/>
<path d="M84.4077 10.011C84.4134 9.26031 83.9937 8.64855 83.4703 8.6446C82.9469 8.64065 82.5179 9.24601 82.5123 9.9967C82.5066 10.7474 82.9263 11.3592 83.4497 11.3631C83.9731 11.3671 84.402 10.7617 84.4077 10.011Z" fill="#E6E6E6"/>
<path d="M82.3403 1.36647C82.346 0.615776 81.9263 0.00401409 81.4029 6.5158e-05C80.8795 -0.00388377 80.4506 0.601476 80.4449 1.35217C80.4392 2.10287 80.8589 2.71463 81.3823 2.71858C81.9057 2.72252 82.3346 2.11717 82.3403 1.36647Z" fill="#2395FF"/>
<path d="M98.4135 16.5798C98.4192 15.8292 97.9995 15.2174 97.4761 15.2134C96.9527 15.2095 96.5238 15.8149 96.5181 16.5655C96.5124 17.3162 96.9321 17.928 97.4555 17.932C97.9789 17.9359 98.4078 17.3305 98.4135 16.5798Z" fill="#E6E6E6"/>
<path d="M91.6352 19.9568C91.6409 19.2061 91.2212 18.5944 90.6978 18.5904C90.1744 18.5865 89.7455 19.1918 89.7398 19.9425C89.7341 20.6932 90.1538 21.305 90.6772 21.3089C91.2006 21.3129 91.6295 20.7075 91.6352 19.9568Z" fill="#FF6584"/>
<path d="M101.071 26.1975C101.076 25.4468 100.657 24.8351 100.133 24.8311C99.6099 24.8272 99.181 25.4325 99.1753 26.1832C99.1697 26.9339 99.5893 27.5457 100.113 27.5496C100.636 27.5536 101.065 26.9482 101.071 26.1975Z" fill="#2395FF"/>
<path d="M13.8983 127.307C14.0176 126.489 13.1592 125.687 11.981 125.516C10.8029 125.345 9.75117 125.87 9.63193 126.687C9.51268 127.505 10.3711 128.307 11.5492 128.478C12.7273 128.649 13.7791 128.124 13.8983 127.307Z" fill="#E6E6E6"/>
<path d="M27.9256 125.941C28.0449 125.123 27.1865 124.322 26.0084 124.151C24.8302 123.98 23.7785 124.504 23.6593 125.322C23.54 126.139 24.3984 126.941 25.5765 127.112C26.7547 127.283 27.8064 126.759 27.9256 125.941Z" fill="#2395FF"/>
<path d="M10.0575 115.977C10.1767 115.159 9.31834 114.357 8.14021 114.186C6.96208 114.015 5.91035 114.54 5.79111 115.357C5.67186 116.175 6.53026 116.977 7.70839 117.148C8.88652 117.319 9.93824 116.794 10.0575 115.977Z" fill="#FF6584"/>
<path d="M3.96237 111.336C3.96806 110.585 3.54837 109.973 3.02496 109.969C2.50156 109.965 2.07263 110.571 2.06694 111.321C2.06125 112.072 2.48095 112.684 3.00436 112.688C3.52776 112.692 3.95668 112.086 3.96237 111.336Z" fill="#E6E6E6"/>
<path d="M1.89595 102.691C1.90164 101.94 1.48195 101.329 0.958546 101.325C0.435141 101.321 0.00622552 101.926 0.000536067 102.677C-0.00515339 103.428 0.414537 104.039 0.937943 104.043C1.46135 104.047 1.89026 103.442 1.89595 102.691Z" fill="#2395FF"/>
<path d="M17.9692 117.905C17.9749 117.154 17.5552 116.542 17.0318 116.538C16.5084 116.534 16.0795 117.14 16.0738 117.89C16.0681 118.641 16.4878 119.253 17.0112 119.257C17.5346 119.261 17.9635 118.655 17.9692 117.905Z" fill="#E6E6E6"/>
<path d="M11.1899 121.282C11.1956 120.531 10.7759 119.919 10.2525 119.915C9.72909 119.911 9.30017 120.517 9.29448 121.267C9.28879 122.018 9.70849 122.63 10.2319 122.634C10.7553 122.638 11.1842 122.032 11.1899 121.282Z" fill="#FF6584"/>
<path d="M20.6264 127.523C20.6321 126.772 20.2124 126.16 19.689 126.156C19.1656 126.152 18.7367 126.758 18.731 127.508C18.7253 128.259 19.145 128.871 19.6684 128.875C20.1918 128.879 20.6207 128.273 20.6264 127.523Z" fill="#2395FF"/>
</g>
<defs>
<clipPath id="clip0_697_696">
<rect width="164" height="195" fill="white"/>
</clipPath>
</defs>
</svg>
