<svg width="300" height="167" viewBox="0 0 300 167" fill="none" xmlns="http://www.w3.org/2000/svg">
<g clip-path="url(#clip0_631_3150)">
<path d="M63.1351 166.364H17.3025C17.3025 166.364 16.3734 152.812 21.8701 152.658C27.3667 152.504 26.7474 158.664 33.6379 150.194C40.5285 141.724 48.8895 142.186 49.9734 147.191C51.0573 152.196 47.8832 156.2 53.6896 154.968C59.4959 153.736 67.8576 156.97 63.1351 166.364Z" fill="#E6E6E6"/>
<path d="M39.4459 166.367L39.291 166.361C39.6519 157.439 41.5305 151.707 43.0434 148.468C44.6857 144.952 46.2683 143.529 46.2842 143.515L46.3873 143.63C46.3716 143.644 44.8076 145.053 43.1783 148.545C41.6739 151.769 39.8054 157.478 39.4459 166.367Z" fill="white"/>
<path d="M56.0334 166.385L55.8848 166.342C57.0374 162.561 59.1152 159.123 61.932 156.336L62.036 156.45C59.2401 159.217 57.1777 162.631 56.0334 166.385Z" fill="white"/>
<path d="M24.522 166.375L24.3685 166.354C24.8682 163.009 24.3395 159.591 22.8517 156.55C22.2418 155.275 21.4344 154.103 20.459 153.076L20.5662 152.965C21.5548 154.004 22.3733 155.191 22.9918 156.482C24.493 159.551 25.0264 162.999 24.522 166.375Z" fill="white"/>
<path d="M69.3549 166.57H12.3591L12.3461 166.378C12.3135 165.901 11.5862 154.633 15.2571 150.612C15.6213 150.187 16.0708 149.843 16.5768 149.602C17.0829 149.36 17.6341 149.227 18.1951 149.21C20.5878 149.142 22.0915 150.034 23.3045 150.749C25.5906 152.098 27.1005 152.989 32.5917 146.239C38.5398 138.927 44.958 137.353 48.6474 138.228C51.0313 138.794 52.6743 140.391 53.1551 142.612C53.6114 144.714 53.4654 146.69 53.3487 148.277C53.2239 149.976 53.1254 151.317 53.8269 151.925C54.4137 152.433 55.581 152.479 57.5043 152.071C61.416 151.241 66.8755 151.951 69.6154 155.472C71.0895 157.366 72.2509 160.81 69.4123 166.456L69.3549 166.57ZM12.748 166.158H69.0984C71.2137 161.89 71.2798 158.284 69.2878 155.724C66.7742 152.494 61.5008 151.644 57.5907 152.474C55.5008 152.917 54.2559 152.844 53.5547 152.236C52.6971 151.493 52.8024 150.061 52.9354 148.248C53.0501 146.687 53.1926 144.744 52.7499 142.699C52.3039 140.64 50.7735 139.157 48.5509 138.63C44.9792 137.783 38.739 139.336 32.9134 146.499C27.1977 153.525 25.4755 152.51 23.0929 151.103C21.865 150.379 20.4711 149.557 18.2065 149.621C17.7014 149.637 17.2054 149.758 16.7502 149.977C16.295 150.195 15.8907 150.506 15.5635 150.889C12.2652 154.502 12.6675 164.635 12.7483 166.158H12.748Z" fill="#2F2E41"/>
<path d="M255.587 166.799H199.448L199.437 166.486L196.757 90.2368H258.278L255.587 166.799ZM200.078 166.151H254.957L257.603 90.8853H197.432L200.078 166.151Z" fill="#3F3D56"/>
<path d="M212.84 104.364H208.57V156.919H212.84V104.364Z" fill="#3F3D56"/>
<path d="M229.653 104.364H225.383V156.919H229.653V104.364Z" fill="#3F3D56"/>
<path d="M246.465 104.364H242.195V156.919H246.465V104.364Z" fill="#3F3D56"/>
<path d="M293.952 112.627L293.676 112.454L223.944 68.6256L229.993 59.106L230.269 59.2791L300 103.108L293.952 112.627ZM224.844 68.4239L293.748 111.733L299.1 103.31L230.196 60.0004L224.844 68.4239Z" fill="#3F3D56"/>
<path d="M277.115 65.0929C275.088 63.8171 272.736 63.1464 270.337 63.1604C267.939 63.1744 265.594 63.8725 263.583 65.1719C261.571 66.4713 259.976 68.3175 258.988 70.4913C257.999 72.6651 257.659 75.0753 258.006 77.4359L261.331 79.5258C260.496 77.596 260.303 75.4509 260.782 73.4045C261.261 71.3581 262.386 69.5179 263.992 68.1534C265.598 66.7888 267.602 65.9716 269.709 65.8214C271.816 65.6712 273.916 66.1959 275.702 67.3187C277.487 68.4414 278.865 70.1032 279.632 72.0608C280.399 74.0184 280.516 76.1689 279.966 78.1974C279.416 80.2259 278.227 82.0259 276.573 83.3338C274.92 84.6417 272.889 85.3888 270.778 85.4658L274.103 87.5557C276.396 86.8555 278.439 85.5157 279.99 83.6953C281.54 81.875 282.533 79.6504 282.851 77.2856C283.168 74.9208 282.797 72.515 281.781 70.3539C280.764 68.1927 279.146 66.3668 277.118 65.0929H277.115Z" fill="#3F3D56"/>
<path d="M296.315 166.352H0V167H296.315V166.352Z" fill="#3F3D56"/>
<path d="M129.426 161.927H124.679L122.419 143.714H129.427L129.426 161.927Z" fill="#FEB8B8"/>
<path d="M115.522 166.311H130.443V160.578H121.207C119.7 160.578 118.254 161.173 117.187 162.234C116.121 163.294 115.522 164.732 115.522 166.232V166.311Z" fill="#2F2E41"/>
<path d="M127.757 133.705L131.032 137.124L145.848 126.189L141.015 121.144L127.757 133.705Z" fill="#FEB8B8"/>
<path d="M134.406 138.69L128.033 132.04L123.859 135.996L134.154 146.74L134.212 146.685C134.753 146.173 135.186 145.56 135.489 144.881C135.791 144.202 135.956 143.47 135.974 142.728C135.992 141.985 135.862 141.247 135.593 140.554C135.324 139.861 134.921 139.228 134.406 138.691V138.69Z" fill="#2F2E41"/>
<path d="M94.7128 83.809C94.4123 83.3282 94.2215 82.7878 94.1537 82.2257C94.0859 81.6637 94.1428 81.0937 94.3204 80.5559C94.498 80.018 94.792 79.5255 95.1817 79.1129C95.5713 78.7002 96.0472 78.3776 96.5757 78.1676L115.215 30.9204L122.48 35.2471L101.775 80.5727C102.071 81.4795 102.022 82.4627 101.637 83.3361C101.253 84.2094 100.56 84.9122 99.6893 85.3111C98.8187 85.7101 97.8313 85.7775 96.914 85.5007C95.9968 85.2238 95.2136 84.6219 94.7128 83.809Z" fill="#FEB8B8"/>
<path d="M165.46 87.1957C164.892 87.1553 164.34 86.9915 163.843 86.7159C163.345 86.4403 162.915 86.0596 162.581 85.6005C162.248 85.1415 162.02 84.6153 161.913 84.059C161.806 83.5028 161.824 82.93 161.963 82.3811L134.466 39.6268L142.254 36.3198L166.975 79.6103C167.888 79.9038 168.66 80.5205 169.146 81.3433C169.632 82.1661 169.797 83.1377 169.611 84.0737C169.424 85.0097 168.898 85.8448 168.133 86.4206C167.368 86.9963 166.417 87.2726 165.46 87.197V87.1957Z" fill="#FEB8B8"/>
<path d="M115.398 79.078L120.266 151.026L131.897 150.005L134.292 96.9238L140.792 119.721L154.818 120.741L149.266 75.6753L115.398 79.078Z" fill="#2F2E41"/>
<path d="M142.844 116.319L140.791 119.722L126.424 129.589L136.687 135.033C136.687 135.033 156.529 124.145 154.819 120.742L142.844 116.319Z" fill="#2F2E41"/>
<path d="M105.213 49.9684L109.262 38.6207C110.163 36.0959 111.558 33.7738 113.367 31.7888C115.176 29.8038 117.363 28.1954 119.801 27.0566C125.282 25.0485 131.242 24.724 136.91 26.1251L138.384 26.4889C142.313 27.436 145.994 29.2044 149.183 31.6763C151.678 33.6327 153.922 36.1097 154.122 38.7741C154.123 38.7798 154.125 38.7853 154.127 38.7906C154.818 41.8033 155.16 57.4549 155.16 57.4549H149.064L150.028 78.5507L149.951 78.398C149.951 78.398 114.792 85.0156 114.792 81.6129V59.8359L114.071 51.9509L105.213 49.9684Z" fill="#CCCCCC"/>
<path d="M138.03 23.1755C143.411 23.1755 147.773 18.8369 147.773 13.485C147.773 8.13303 143.411 3.79443 138.03 3.79443C132.649 3.79443 128.287 8.13303 128.287 13.485C128.287 18.8369 132.649 23.1755 138.03 23.1755Z" fill="#FEB8B8"/>
<path d="M139.49 9.13922L147.055 9.44074C148.007 9.43783 149.046 9.40443 149.771 8.79231C150.863 7.86861 150.681 6.12562 150.096 4.82357C148.466 1.19817 144.83 -0.100645 140.838 0.00602215C136.846 0.11269 132.662 1.45851 130.513 4.80444C128.363 8.15036 127.782 12.3756 128.592 16.2636C129.528 14.2866 130.969 12.5884 132.771 11.3385C134.573 10.0886 136.674 9.3307 138.862 9.14052L139.49 9.13922Z" fill="#2F2E41"/>
<path d="M184.414 103.926L157.031 84.8387C156.777 84.6606 156.604 84.3895 156.55 84.0848C156.496 83.7801 156.566 83.4665 156.744 83.2128L178.236 52.7128C178.415 52.4597 178.688 52.2876 178.994 52.234C179.3 52.1804 179.616 52.2497 179.871 52.4268L207.254 71.5144C207.508 71.6925 207.681 71.9636 207.735 72.2683C207.789 72.573 207.719 72.8866 207.541 73.1403L186.049 103.64C185.871 103.893 185.598 104.065 185.291 104.119C184.985 104.173 184.669 104.104 184.414 103.926Z" fill="#F52929"/>
<path d="M190.572 83.2148L174.505 72.0146C174.319 71.885 174.161 71.7204 174.039 71.53C173.917 71.3396 173.834 71.1272 173.795 70.9049C173.755 70.6826 173.76 70.4548 173.81 70.2345C173.859 70.0142 173.951 69.8057 174.081 69.6209C174.212 69.4361 174.377 69.2786 174.569 69.1574C174.76 69.0362 174.974 68.9537 175.197 68.9147C175.421 68.8756 175.65 68.8806 175.871 68.9296C176.093 68.9785 176.302 69.0704 176.488 69.1999L192.556 80.4002C192.931 80.6618 193.187 81.0609 193.266 81.5098C193.345 81.9587 193.242 82.4206 192.979 82.7938C192.716 83.1671 192.315 83.4211 191.864 83.5001C191.412 83.579 190.948 83.4764 190.572 83.2148Z" fill="white"/>
<path d="M186.884 88.4481L170.817 77.2478C170.63 77.1184 170.472 76.9538 170.35 76.7633C170.228 76.5729 170.145 76.3604 170.105 76.1381C170.066 75.9157 170.071 75.6878 170.12 75.4673C170.169 75.2469 170.262 75.0382 170.392 74.8533C170.522 74.6684 170.688 74.5108 170.88 74.3896C171.071 74.2684 171.285 74.186 171.508 74.1469C171.732 74.1079 171.961 74.1131 172.183 74.1622C172.404 74.2113 172.614 74.3034 172.8 74.4332L188.868 85.6335C189.242 85.8952 189.498 86.2943 189.577 86.743C189.656 87.1917 189.553 87.6532 189.29 88.0263C189.027 88.3993 188.626 88.6533 188.175 88.7324C187.724 88.8115 187.26 88.7092 186.884 88.4481Z" fill="white"/>
<path d="M183.157 93.7373L167.09 82.537C166.904 82.4075 166.746 82.2428 166.624 82.0524C166.502 81.862 166.419 81.6497 166.38 81.4274C166.34 81.2051 166.345 80.9773 166.395 80.757C166.444 80.5367 166.536 80.3282 166.666 80.1434C166.797 79.9585 166.962 79.8011 167.154 79.6799C167.345 79.5587 167.559 79.4762 167.782 79.4371C168.006 79.398 168.235 79.4031 168.456 79.452C168.678 79.501 168.887 79.5928 169.073 79.7224L185.141 90.9226C185.516 91.1842 185.772 91.5834 185.851 92.0323C185.93 92.4812 185.827 92.9431 185.564 93.3163C185.301 93.6896 184.9 93.9436 184.448 94.0226C183.997 94.1015 183.533 93.9989 183.157 93.7373V93.7373Z" fill="white"/>
<path d="M190.527 72.8629L184.304 68.5247C184.118 68.3953 183.959 68.2306 183.837 68.0402C183.715 67.8498 183.632 67.6373 183.593 67.4149C183.553 67.1926 183.558 66.9646 183.607 66.7442C183.657 66.5237 183.749 66.3151 183.879 66.1302C184.01 65.9453 184.175 65.7877 184.367 65.6665C184.558 65.5453 184.772 65.4628 184.996 65.4238C185.219 65.3848 185.449 65.39 185.67 65.4391C185.892 65.4882 186.101 65.5803 186.287 65.71L192.511 70.0482C192.886 70.3098 193.141 70.709 193.221 71.1579C193.3 71.6068 193.197 72.0686 192.934 72.4419C192.671 72.8151 192.27 73.0692 191.818 73.1481C191.367 73.2271 190.903 73.1245 190.527 72.8629Z" fill="white"/>
</g>
<defs>
<clipPath id="clip0_631_3150">
<rect width="300" height="167" fill="white"/>
</clipPath>
</defs>
</svg>
